<?xml version="1.0" encoding="utf-8"?>
<!-- Generator: Adobe Illustrator 14.0.0, SVG Export Plug-In . SVG Version: 6.00 Build 43363)  -->
<!DOCTYPE svg PUBLIC "-//W3C//DTD SVG 1.1//EN" "http://www.w3.org/Graphics/SVG/1.1/DTD/svg11.dtd">
<svg version="1.1" id="Layer_1" xmlns="http://www.w3.org/2000/svg" xmlns:xlink="http://www.w3.org/1999/xlink" x="0px" y="0px"
	 width="612px" height="792px" viewBox="0 0 612 792" enable-background="new 0 0 612 792" xml:space="preserve">
<g>
	<polygon fill-rule="evenodd" clip-rule="evenodd" fill="#FFFFFF" points="209,300 401.756,300 401.756,492.756 209,492.756 
		209,300 	"/>
	<path fill-rule="evenodd" clip-rule="evenodd" d="M211.834,410.619c3.243,0.477,6.557,0.857,9.871,1.121
		c40.438-4.412,79.301-3.674,118.856-1.813c17.811,0.857,35.454,1,53.145,2.313c6.271,0.453,6.128-1.859,3.529-3.41
		c-19.313-11.42-41.677-16.928-64.018-20.862c-0.954-0.358-1.025-0.858-0.167-1.478c3.028-2.599,11.016-3.505,18.979,1.764
		c1.049,0.62,1.383,0.047,0.811-0.549c-8.249-7.415-20.409-7.749-27.8,1.145c-0.549,0.572-0.478,1.025,0.19,1.359
		c27.682,2.074,47.28,9.537,55.911,15.306c1.526,1.002-0.286,1.789-2.551,1.717c-4.649-0.143-9.729,0.119-15.141-0.119
		C322.68,405.23,261.976,404.539,211.834,410.619L211.834,410.619z"/>
	<path fill-rule="evenodd" clip-rule="evenodd" d="M241.876,404.133c-0.691,0.549-1.645,0.049-0.978-0.715
		c8.035-9.012,27.062-22.626,56.436-32.14c0.644-0.215,2.17-0.811,1.407,1.526c-1.669,5.222-2.933,9.155-4.339,14.925
		c-0.62,2.623,0.477,4.101,2.933,3.886c8.87-0.739,18.645-3.91,24.868-6.151c1.502-0.548,1.955,0.739,1.097,1.74
		c-2.933,3.338-5.579,7.249-5.508,12.16c0,0.453-0.119,1-0.5,1.24c-1.073,0.619-2.289,1.168-3.529,1.119
		c-0.524-0.023-1.025-0.238-0.763-1.264c1.383-5.579,1.955-7.128,2.79-9.441c0.644-1.717-0.716-1.073-1.192-0.93
		c-7.319,2.146-14.544,3.958-21.578,5.746c-2.075,0.524-3.886-0.596-3.767-2.504c0.357-5.722,1.192-10.324,2.003-15.116
		c0.143-0.715-0.358-1.025-1.097-0.763C271.203,384.034,260.808,389.327,241.876,404.133L241.876,404.133z"/>
	<path fill-rule="evenodd" clip-rule="evenodd" d="M300.529,382.723c-0.143,1.526-0.5,3.624,1.979,4.363
		c1.645,0.5,3.338,0.62,5.007,0.667c0.596,0.024,0.978-0.191,0.882-0.811c-0.167-1.24-0.405-2.384-0.739-3.481
		c-0.453-1.574-1.907-2.384-3.695-2.718c-1.479-0.071-2.909-0.119-4.411-0.214c-0.405-0.024-0.763-0.239-1.12-0.334
		c-0.334-0.119-1.24,0.191-0.525,0.739c0.381,0.262,0.906,0.239,1.359,0.262c1.479,0.119,3.004,0.024,4.387,0.215
		c1.312,0.167,2.599,0.93,3.099,2.503c0.144,0.477,0.024,0.691-0.453,0.596c-1.358-0.214-2.646-0.072-4.053-1.86
		c-0.071-0.095-0.215-0.167-0.357-0.167C301.459,382.437,300.553,382.293,300.529,382.723L300.529,382.723z"/>
	<path fill-rule="evenodd" clip-rule="evenodd" d="M380.212,421.682v-0.191c0.023,0,0.047,0,0.071,0v0.191H380.212L380.212,421.682z
		 M380.212,419.846l1.001,1.836l2.266,0.023v-0.189c-0.405-0.025-0.549-0.168-0.739-0.525l-1.24-2.193
		c0.739-0.287,1.216-0.715,1.216-1.551c0-1.096-0.787-1.668-2.384-1.691h-0.119v0.428c0.501,0.145,0.691,0.502,0.691,1.313
		c0,0.738-0.239,1.049-0.691,1.145V419.846L380.212,419.846z M380.212,415.555v0.428c-0.191-0.047-0.43-0.07-0.691-0.07
		l-0.024,2.598c0.286,0,0.501-0.023,0.716-0.07v1.406l-0.524-0.953h-0.191l-0.023,1.787c0,0.621,0.19,0.787,0.739,0.811v0.191
		l-3.434-0.047v-0.191c0.596,0.023,0.834-0.119,0.834-0.787l0.048-4.125c0-0.668-0.238-0.834-0.811-0.834v-0.191L380.212,415.555
		L380.212,415.555z M344.305,419.346v-0.334h0.667l-0.644-1.813l-0.023,0.072v-1.002l0.429-1.098h0.597l2.122,5.531
		c0.143,0.383,0.214,0.406,0.5,0.453v0.191l-3.099-0.047v-0.191h0.381c0.215,0,0.357-0.096,0.357-0.311
		c0-0.143-0.048-0.285-0.071-0.404l-0.405-1.025L344.305,419.346L344.305,419.346z M355.653,419.869
		c-0.357,0.406-0.953,1.121-1.812,1.121c-1.145-0.023-1.502-1.121-1.479-2.67c0-1.551,0.405-2.695,1.526-2.695
		c0.882,0.025,1.431,0.691,1.573,1.525h0.19l0.024-1.93l-0.191-0.025c-0.071,0.264-0.095,0.406-0.31,0.406
		c-0.286-0.023-0.858-0.43-1.765-0.453c-1.692,0-2.956,1.098-2.956,3.148c-0.024,2.049,1.191,3.193,2.908,3.193
		c0.906,0.025,1.789-0.404,2.289-1.049V419.869L355.653,419.869z M363.141,418.535l-0.024,1.955c0,0.596-0.238,0.785-0.763,0.811
		v0.189l3.434,0.025v-0.168c-0.597-0.023-0.811-0.166-0.811-0.834l0.047-4.125c0-0.668,0.238-0.811,0.835-0.811v-0.191l-3.457-0.023
		v0.191c0.524,0.023,0.763,0.213,0.763,0.811l-0.023,1.764l-1.955-0.023l0.023-1.764c0-0.598,0.262-0.787,0.763-0.787v-0.191
		l-3.433-0.047v0.189c0.571,0,0.834,0.168,0.811,0.811l-0.048,4.148c0,0.645-0.238,0.811-0.835,0.787v0.191l3.458,0.047v-0.189
		c-0.525-0.025-0.764-0.238-0.764-0.811l0.024-1.98L363.141,418.535L363.141,418.535z M373.607,421.609l0.334-1.811h-0.215
		c-0.357,1.311-1.073,1.43-1.646,1.406h-0.763c-0.357,0-0.429-0.119-0.429-0.453l0.023-2.098c0.882,0,1.097,0.285,1.192,1.311h0.19
		l0.048-2.98h-0.191c-0.143,1.002-0.357,1.287-1.239,1.287l0.048-2.432h0.953c0.978,0,1.407,0.381,1.479,1.336h0.19l0.024-1.693
		l-5.341-0.072v0.191c0.596,0.023,0.834,0.166,0.811,0.834l-0.048,4.125c0,0.668-0.238,0.811-0.834,0.811v0.191L373.607,421.609
		L373.607,421.609z M344.305,416.27v1.002l-0.691,1.74h0.691v0.334h-0.811l-0.334,0.881c-0.071,0.191-0.096,0.311-0.119,0.477
		c0,0.238,0.143,0.383,0.667,0.406v0.191l-1.764-0.025v-0.189c0.357-0.023,0.5-0.168,0.763-0.811L344.305,416.27L344.305,416.27z
		 M281.479,420.729v-1.074c0.167,0.191,0.382,0.287,0.62,0.287c0.477,0,0.787-0.287,0.978-0.668l0.238,0.096
		C283.005,420.156,282.409,420.703,281.479,420.729L281.479,420.729z M281.479,418.414v-0.309h0.477
		c0.024-1.168-0.191-1.479-0.453-1.479c-0.024,0-0.024,0-0.024,0v-0.311c1.335,0.072,1.836,1.098,1.813,2.123L281.479,418.414
		L281.479,418.414z M288.394,420.703v-0.189c-0.31-0.049-0.453-0.168-0.453-0.477l0.048-5.461l-2.027-0.023v0.191
		c0.31,0.047,0.477,0.166,0.453,0.451l-0.048,4.842c0,0.285-0.143,0.404-0.453,0.453l-0.024,0.189L288.394,420.703L288.394,420.703z
		 M297.287,420.824l0.191,0.023c0.048-0.168,0.215-0.311,0.405-0.311c0.191,0,1.121,0.381,1.908,0.381
		c1.359,0.023,2.36-0.549,2.36-1.979c0.024-2.359-3.386-1.955-3.362-3.195c0-0.523,0.429-0.787,1.001-0.787
		c0.977,0.025,1.764,0.598,1.979,1.574h0.191v-1.813h-0.191c0,0.264-0.095,0.357-0.286,0.357c-0.311,0-0.739-0.477-1.789-0.477
		c-1.145-0.023-2.336,0.549-2.336,1.836c-0.024,2.242,3.481,1.885,3.457,3.338c0,0.525-0.548,0.787-1.192,0.764
		c-1.049,0-1.931-0.668-2.122-1.813h-0.191L297.287,420.824L297.287,420.824z M310.209,419.369c-0.357,0.43-0.953,1.145-1.812,1.145
		c-1.145-0.023-1.502-1.121-1.479-2.67c0-1.551,0.405-2.719,1.526-2.695c0.882,0.023,1.431,0.668,1.573,1.525h0.19l0.024-1.955
		h-0.19c-0.072,0.238-0.119,0.383-0.311,0.383c-0.286,0-0.858-0.406-1.764-0.43c-1.693-0.023-2.957,1.096-2.981,3.146
		c0,2.051,1.216,3.172,2.933,3.195c0.905,0,1.788-0.404,2.288-1.049V419.369L310.209,419.369z M317.696,418.057l-0.024,1.955
		c0,0.598-0.262,0.787-0.763,0.813v0.189l3.434,0.023v-0.189c-0.597,0-0.811-0.145-0.811-0.811l0.047-4.125
		c0-0.668,0.239-0.811,0.835-0.811v-0.191l-3.457-0.023v0.189c0.524,0,0.763,0.215,0.763,0.813l-0.023,1.74h-1.955l0.023-1.766
		c0-0.596,0.263-0.787,0.763-0.811v-0.189l-3.433-0.025v0.191c0.572,0,0.811,0.143,0.811,0.811l-0.048,4.125
		c0,0.668-0.238,0.811-0.834,0.811v0.191l3.457,0.023v-0.166c-0.525-0.025-0.764-0.24-0.764-0.836l0.024-1.955L317.696,418.057
		L317.696,418.057z M322.655,414.934v0.191c0.596,0,0.811,0.166,0.811,0.811l-0.023,3.195c-0.024,1.453,0.978,2.051,2.384,2.074
		c1.431,0.023,2.385-0.596,2.408-2.051l0.024-3.146c0.023-0.668,0.262-0.813,0.834-0.813l0.024-0.189l-2.003-0.023v0.189
		c0.548,0.023,0.739,0.287,0.739,0.811l-0.024,3.219c-0.023,1.145-0.763,1.598-1.479,1.598c-0.572,0-1.072-0.334-1.072-1.24
		l0.048-3.6c0-0.668,0.238-0.811,0.834-0.787v-0.189L322.655,414.934L322.655,414.934z M335.148,421.205l2.17-4.959l-0.048,3.98
		c0,0.668-0.238,0.811-0.834,0.787v0.191l3.528,0.047v-0.189c-0.596,0-0.834-0.145-0.834-0.813l0.048-4.148
		c0.023-0.643,0.238-0.785,0.834-0.785v-0.191l-2.599-0.023l-1.669,3.742l-1.55-3.791l-2.646-0.023v0.191
		c0.572,0,0.811,0.166,0.811,0.811l-0.048,4.148c-0.023,0.645-0.238,0.787-0.834,0.787v0.189l2.05,0.025v-0.191
		c-0.596,0-0.811-0.143-0.811-0.811l0.048-4.172h0.023l2.099,5.197H335.148L335.148,421.205z M281.479,416.316v0.311
		c-0.262,0.023-0.477,0.311-0.477,1.455l0.477,0.023v0.309l-0.477-0.023c0.024,0.525,0.214,0.979,0.477,1.264v1.074
		c-0.047,0-0.095,0-0.119,0c-1.145,0-1.955-1.145-1.931-2.219c0-1.096,0.834-2.193,1.955-2.193
		C281.432,416.316,281.455,416.316,281.479,416.316L281.479,416.316z M274.493,420.369v-0.57h0.024c0.19,0,0.286-0.096,0.357-0.168
		v-1.311c-0.119,0.07-0.262,0.119-0.381,0.215v-0.43c0.143-0.049,0.286-0.096,0.381-0.119l0.024-0.787
		c0-0.357-0.095-0.596-0.405-0.645v-0.309c0.024,0,0.072,0,0.096,0c1.502,0.023,1.812,0.547,1.812,1.479l-0.023,1.906
		c0,0.334,0.071,0.406,0.19,0.406c0.096,0,0.12-0.096,0.239-0.096c0.071,0,0.095,0.07,0.095,0.096c0,0.285-0.596,0.643-1.073,0.643
		c-0.548,0-0.763-0.404-0.906-0.619C274.803,420.18,274.66,420.275,274.493,420.369L274.493,420.369z M246.431,420.25l2.169-4.959
		l-0.048,3.982c0,0.668-0.238,0.811-0.834,0.811v0.191l3.529,0.023v-0.191c-0.596,0-0.834-0.143-0.834-0.811l0.048-4.125
		c0.024-0.668,0.238-0.811,0.834-0.811v-0.189l-2.599-0.025l-1.669,3.768l-1.549-3.791l-2.647-0.023v0.166
		c0.572,0.025,0.811,0.168,0.811,0.836l-0.047,4.125c-0.024,0.666-0.238,0.811-0.834,0.811v0.189l2.05,0.023v-0.189
		c-0.572-0.023-0.811-0.168-0.811-0.834l0.048-4.15h0.023l2.098,5.174H246.431L246.431,420.25z M274.493,416.246v0.309
		c-0.024,0-0.048,0-0.095,0c-0.238,0-0.405,0.145-0.405,0.334c-0.024,0.191,0.167,0.383,0.167,0.668
		c-0.024,0.311-0.334,0.5-0.715,0.5c-0.429-0.023-0.715-0.262-0.715-0.738C272.753,416.674,273.468,416.27,274.493,416.246
		L274.493,416.246z M274.493,418.105v0.43c-0.215,0.119-0.381,0.332-0.381,0.715c0,0.357,0.095,0.549,0.381,0.549v0.57
		c-0.286,0.168-0.62,0.287-0.954,0.287c-0.572-0.023-0.954-0.406-0.954-1.002C272.61,418.844,273.754,418.367,274.493,418.105
		L274.493,418.105z M256.206,420.369v-0.189c-0.31-0.072-0.477-0.191-0.477-0.477l0.048-3.553l-2.027-0.023v0.189
		c0.31,0.072,0.453,0.191,0.453,0.477l-0.024,2.887c0,0.309-0.167,0.428-0.477,0.477v0.166L256.206,420.369L256.206,420.369z
		 M254.203,414.91c0,0.453,0.357,0.811,0.787,0.834c0.453,0,0.811-0.357,0.834-0.811c0-0.453-0.357-0.811-0.811-0.811
		C254.561,414.1,254.203,414.457,254.203,414.91L254.203,414.91z M262.477,419.059c-0.215,0.383-0.644,0.668-0.978,0.668
		c-0.787,0-1.192-0.764-1.168-1.932c0-1.096,0.286-1.383,0.549-1.383c0.167,0,0.31,0.168,0.31,0.43c0,0.189-0.047,0.334-0.047,0.523
		c0,0.311,0.238,0.645,0.667,0.645c0.453,0,0.691-0.285,0.715-0.738c0-0.502-0.453-1.145-1.621-1.17
		c-1.383,0-2.146,1.098-2.146,2.195c-0.024,1.238,0.834,2.217,1.979,2.217c1.001,0,1.646-0.549,1.979-1.359L262.477,419.059
		L262.477,419.059z M267.15,414.338l-2.027-0.023v0.189c0.31,0.072,0.453,0.191,0.453,0.479l-0.048,4.816
		c0,0.309-0.167,0.428-0.477,0.477v0.189l2.361,0.025v-0.191c-0.215-0.072-0.334-0.191-0.334-0.477l0.048-2.576
		c0.119-0.166,0.31-0.357,0.548-0.357c0.262,0.023,0.333,0.215,0.333,0.668l-0.023,2.266c0,0.309-0.12,0.428-0.334,0.477v0.191
		l2.313,0.023v-0.191c-0.31-0.072-0.477-0.191-0.453-0.477l0.023-2.336c0-0.979-0.548-1.313-1.192-1.336
		c-0.572,0-0.858,0.238-1.216,0.645L267.15,414.338L267.15,414.338z"/>
</g>
</svg>
